STARTFONT 2.1
FONT -DEC-Terminal-Bold-R-Double Wide--14-140-75-75-C-160-iso8859-5
SIZE 14 75 75
FONTBOUNDINGBOX 16 15 0 -3

STARTPROPERTIES 24
FOUNDRY "Monotype"
FAMILY_NAME "VT"
WEIGHT_NAME "Bold"
SLANT "R"
SETWIDTH_NAME "Double Wide"
ADD_STYLE_NAME ""
PIXEL_SIZE 14
POINT_SIZE 140
RESOLUTION_X 75
RESOLUTION_Y 75
SPACING "C"
AVERAGE_WIDTH 160
CHARSET_REGISTRY "iso8859"
CHARSET_ENCODING "5"
FACE_NAME "VT Double Wide Bold ISO Latin Cyrillic"
_DEC_DEVICE_FONTNAMES "PS=vtlatcyr-dblwidebold"
COPYRIGHT "Copyright (c) 1993 Monotype Typography Ltd."
CAP_HEIGHT 8
X_HEIGHT 6
WEIGHT 10
QUAD_WIDTH 16
DEFAULT_CHAR 160
FONT_DESCENT 3
FONT_ASCENT 12
ENDPROPERTIES

CHARS 191

STARTCHAR space
ENCODING 32
SWIDTH 1136 0
DWIDTH 16 0
BBX 16 15 0 -3
BITMAP
0000
0000
0000
0000
0000
0000
0000
0000
0000
0000
0000
0000
0000
0000
0000
ENDCHAR

STARTCHAR exclam
ENCODING 33
SWIDTH 1136 0
DWIDTH 16 0
BBX 16 15 0 -3
BITMAP
0000
0380
0380
0380
0380
0380
0380
0380
0380
0380
0000
0380
0380
0000
0000
ENDCHAR

STARTCHAR quotedbl
ENCODING 34
SWIDTH 1136 0
DWIDTH 16 0
BBX 16 15 0 -3
BITMAP
0000
1C70
1C70
1C70
0000
0000
0000
0000
0000
0000
0000
0000
0000
0000
0000
ENDCHAR

STARTCHAR numbersign
ENCODING 35
SWIDTH 1136 0
DWIDTH 16 0
BBX 16 15 0 -3
BITMAP
0000
0000
0000
0E38
0E38
3FFE
3FFE
0E38
3FFE
3FFE
0E38
0E38
0000
0000
0000
ENDCHAR

STARTCHAR dollar
ENCODING 36
SWIDTH 1136 0
DWIDTH 16 0
BBX 16 15 0 -3
BITMAP
0000
0000
03C0
03C0
1FF8
3E7C
3E00
1FF8
007C
3E7C
1FF8
03C0
03C0
0000
0000
ENDCHAR

STARTCHAR percent
ENCODING 37
SWIDTH 1136 0
DWIDTH 16 0
BBX 16 15 0 -3
BITMAP
0000
0000
381C
6C38
6C70
6CE0
39C0
039C
0736
0E36
1C36
381C
0000
0000
0000
ENDCHAR

STARTCHAR ampersand
ENCODING 38
SWIDTH 1136 0
DWIDTH 16 0
BBX 16 15 0 -3
BITMAP
0000
0000
1F80
3FC0
39C0
1980
1F00
3F9E
79FC
78F0
7FF8
3FBC
0000
0000
0000
ENDCHAR

STARTCHAR quoteright
ENCODING 39
SWIDTH 1136 0
DWIDTH 16 0
BBX 16 15 0 -3
BITMAP
0000
0000
01E0
03E0
0780
0E00
0000
0000
0000
0000
0000
0000
0000
0000
0000
ENDCHAR

STARTCHAR parenleft
ENCODING 40
SWIDTH 1136 0
DWIDTH 16 0
BBX 16 15 0 -3
BITMAP
0000
003C
0078
00F0
01E0
01C0
01C0
01C0
01C0
01E0
00F0
0078
003C
0000
0000
ENDCHAR

STARTCHAR parenright
ENCODING 41
SWIDTH 1136 0
DWIDTH 16 0
BBX 16 15 0 -3
BITMAP
0000
3C00
1E00
0F00
0780
0380
0380
0380
0380
0780
0F00
1E00
3C00
0000
0000
ENDCHAR

STARTCHAR asterisk
ENCODING 42
SWIDTH 1136 0
DWIDTH 16 0
BBX 16 15 0 -3
BITMAP
0000
0000
0C60
0EE0
07C0
1FF0
1FF0
07C0
0EE0
0C60
0000
0000
0000
0000
0000
ENDCHAR

STARTCHAR plus
ENCODING 43
SWIDTH 1136 0
DWIDTH 16 0
BBX 16 15 0 -3
BITMAP
0000
0000
0000
0380
0380
0380
3FF8
3FF8
0380
0380
0380
0000
0000
0000
0000
ENDCHAR

STARTCHAR comma
ENCODING 44
SWIDTH 1136 0
DWIDTH 16 0
BBX 16 15 0 -3
BITMAP
0000
0000
0000
0000
0000
0000
0000
0000
0000
03C0
03C0
0380
0F00
0000
0000
ENDCHAR

STARTCHAR minus
ENCODING 45
SWIDTH 1136 0
DWIDTH 16 0
BBX 16 15 0 -3
BITMAP
0000
0000
0000
0000
0000
0000
1FF8
1FF8
0000
0000
0000
0000
0000
0000
0000
ENDCHAR

STARTCHAR period
ENCODING 46
SWIDTH 1136 0
DWIDTH 16 0
BBX 16 15 0 -3
BITMAP
0000
0000
0000
0000
0000
0000
0000
0000
0000
03C0
03C0
03C0
0000
0000
0000
ENDCHAR

STARTCHAR slash
ENCODING 47
SWIDTH 1136 0
DWIDTH 16 0
BBX 16 15 0 -3
BITMAP
0000
0000
001C
0038
0070
00E0
01C0
0380
0700
0E00
1C00
3800
0000
0000
0000
ENDCHAR

STARTCHAR zero
ENCODING 48
SWIDTH 1136 0
DWIDTH 16 0
BBX 16 15 0 -3
BITMAP
0000
0000
07E0
0FF0
1E78
3C3C
3C3C
3C3C
3C3C
1E78
0FF0
07E0
0000
0000
0000
ENDCHAR

STARTCHAR one
ENCODING 49
SWIDTH 1136 0
DWIDTH 16 0
BBX 16 15 0 -3
BITMAP
0000
0000
03C0
07C0
1FC0
03C0
03C0
03C0
03C0
03C0
3FFC
3FFC
0000
0000
0000
ENDCHAR

STARTCHAR two
ENCODING 50
SWIDTH 1136 0
DWIDTH 16 0
BBX 16 15 0 -3
BITMAP
0000
0000
0FF8
1FFC
1C3C
003C
00F8
03F0
0FC0
3E00
3FFE
3FFE
0000
0000
0000
ENDCHAR

STARTCHAR three
ENCODING 51
SWIDTH 1136 0
DWIDTH 16 0
BBX 16 15 0 -3
BITMAP
0000
0000
1FF8
3FFC
303C
003C
03F8
03FC
003C
303C
3FFC
1FF8
0000
0000
0000
ENDCHAR

STARTCHAR four
ENCODING 52
SWIDTH 1136 0
DWIDTH 16 0
BBX 16 15 0 -3
BITMAP
0000
0000
007C
00FC
03FC
0F3C
3C3C
383C
3FFF
3FFF
003C
003C
0000
0000
0000
ENDCHAR

STARTCHAR five
ENCODING 53
SWIDTH 1136 0
DWIDTH 16 0
BBX 16 15 0 -3
BITMAP
0000
0000
1FFC
1FFC
1E00
1E00
1FFC
1FFE
001E
183E
1FFC
0FF8
0000
0000
0000
ENDCHAR

STARTCHAR six
ENCODING 54
SWIDTH 1136 0
DWIDTH 16 0
BBX 16 15 0 -3
BITMAP
0000
0000
07F8
1FF8
3C00
3C00
3DF8
3FFC
3C3C
3C3C
1FFC
0FF8
0000
0000
0000
ENDCHAR

STARTCHAR seven
ENCODING 55
SWIDTH 1136 0
DWIDTH 16 0
BBX 16 15 0 -3
BITMAP
0000
0000
3FFC
3FFC
3038
00F0
01E0
03C0
0780
0F00
1E00
1E00
0000
0000
0000
ENDCHAR

STARTCHAR eight
ENCODING 56
SWIDTH 1136 0
DWIDTH 16 0
BBX 16 15 0 -3
BITMAP
0000
0000
0FF0
3FFC
3C3C
3C3C
0FF0
3FFC
3C3C
3C3C
3FFC
0FF0
0000
0000
0000
ENDCHAR

STARTCHAR nine
ENCODING 57
SWIDTH 1136 0
DWIDTH 16 0
BBX 16 15 0 -3
BITMAP
0000
0000
0FF0
1FF8
3C3C
3C3C
3C3C
1FFC
0FBC
003C
1FFC
1FF8
0000
0000
0000
ENDCHAR

STARTCHAR colon
ENCODING 58
SWIDTH 1136 0
DWIDTH 16 0
BBX 16 15 0 -3
BITMAP
0000
0000
0000
0000
0780
0780
0780
0000
0000
0780
0780
0780
0000
0000
0000
ENDCHAR

STARTCHAR semicolon
ENCODING 59
SWIDTH 1136 0
DWIDTH 16 0
BBX 16 15 0 -3
BITMAP
0000
0000
0000
0000
0780
0780
0780
0000
0000
0780
0780
0700
1E00
0000
0000
ENDCHAR

STARTCHAR less
ENCODING 60
SWIDTH 1136 0
DWIDTH 16 0
BBX 16 15 0 -3
BITMAP
0000
0000
0000
007C
01F0
07C0
1F00
3C00
1F00
07C0
01F0
007C
0000
0000
0000
ENDCHAR

STARTCHAR equal
ENCODING 61
SWIDTH 1136 0
DWIDTH 16 0
BBX 16 15 0 -3
BITMAP
0000
0000
0000
0000
0000
1FF8
1FF8
0000
1FF8
1FF8
0000
0000
0000
0000
0000
ENDCHAR

STARTCHAR greater
ENCODING 62
SWIDTH 1136 0
DWIDTH 16 0
BBX 16 15 0 -3
BITMAP
0000
0000
0000
3E00
0F80
03E0
00F8
003C
00F8
03E0
0F80
3E00
0000
0000
0000
ENDCHAR

STARTCHAR question
ENCODING 63
SWIDTH 1136 0
DWIDTH 16 0
BBX 16 15 0 -3
BITMAP
0000
0FC0
3FF0
38F8
3078
00F8
03F0
07E0
0780
0780
0000
0780
0780
0000
0000
ENDCHAR

STARTCHAR at
ENCODING 64
SWIDTH 1136 0
DWIDTH 16 0
BBX 16 15 0 -3
BITMAP
0000
0FFC
3E0E
3C0E
3CFE
3DE6
3DE6
3DE6
3DFE
3C7C
3C00
3E06
0FFE
0000
0000
ENDCHAR

STARTCHAR A
ENCODING 65
SWIDTH 1136 0
DWIDTH 16 0
BBX 16 15 0 -3
BITMAP
0000
0000
0180
03C0
07E0
0FF0
1E78
3C3C
3FFC
7FFE
F81F
F81F
0000
0000
0000
ENDCHAR

STARTCHAR B
ENCODING 66
SWIDTH 1136 0
DWIDTH 16 0
BBX 16 15 0 -3
BITMAP
0000
0000
7FFC
3FFE
3C3E
3C1C
3FF8
3FFE
3C1F
3C3F
3FFE
7FFC
0000
0000
0000
ENDCHAR

STARTCHAR C
ENCODING 67
SWIDTH 1136 0
DWIDTH 16 0
BBX 16 15 0 -3
BITMAP
0000
0000
07F0
1FFC
3E1E
7C00
7C00
7C00
7C0E
3E1E
1FFC
07F0
0000
0000
0000
ENDCHAR

STARTCHAR D
ENCODING 68
SWIDTH 1136 0
DWIDTH 16 0
BBX 16 15 0 -3
BITMAP
0000
0000
7FE0
3FF8
3C7C
3C3E
3C3E
3C3E
3C3E
3C7C
3FF8
7FE0
0000
0000
0000
ENDCHAR

STARTCHAR E
ENCODING 69
SWIDTH 1136 0
DWIDTH 16 0
BBX 16 15 0 -3
BITMAP
0000
0000
7FFC
1FFC
1E0C
1E04
1FE0
1FE0
1E04
1E0C
1FFC
7FFC
0000
0000
0000
ENDCHAR

STARTCHAR F
ENCODING 70
SWIDTH 1136 0
DWIDTH 16 0
BBX 16 15 0 -3
BITMAP
0000
0000
7FFC
1FFC
1E0C
1E04
1FF0
1FF0
1E00
1E00
1E00
7F80
0000
0000
0000
ENDCHAR

STARTCHAR G
ENCODING 71
SWIDTH 1136 0
DWIDTH 16 0
BBX 16 15 0 -3
BITMAP
0000
0000
0FF0
3FFC
7E1E
7C00
7C00
7CFE
7CFE
7E3E
3FFE
0FF8
0000
0000
0000
ENDCHAR

STARTCHAR H
ENCODING 72
SWIDTH 1136 0
DWIDTH 16 0
BBX 16 15 0 -3
BITMAP
0000
0000
7E7E
3C3C
3C3C
3C3C
3FFC
3FFC
3C3C
3C3C
3C3C
7E7E
0000
0000
0000
ENDCHAR

STARTCHAR I
ENCODING 73
SWIDTH 1136 0
DWIDTH 16 0
BBX 16 15 0 -3
BITMAP
0000
0000
1FF8
1FF8
03C0
03C0
03C0
03C0
03C0
03C0
1FF8
1FF8
0000
0000
0000
ENDCHAR

STARTCHAR J
ENCODING 74
SWIDTH 1136 0
DWIDTH 16 0
BBX 16 15 0 -3
BITMAP
0000
0000
07F8
07F8
0078
0078
0078
0078
0078
3C78
3FF0
1FE0
0000
0000
0000
ENDCHAR

STARTCHAR K
ENCODING 75
SWIDTH 1136 0
DWIDTH 16 0
BBX 16 15 0 -3
BITMAP
0000
0000
7E1E
3C3C
3C78
3CF0
3FE0
3FC0
3FF0
3CF8
3C7C
7E3E
0000
0000
0000
ENDCHAR

STARTCHAR L
ENCODING 76
SWIDTH 1136 0
DWIDTH 16 0
BBX 16 15 0 -3
BITMAP
0000
0000
3FC0
0F00
0F00
0F00
0F00
0F00
0F04
0F0C
0FFC
3FFC
0000
0000
0000
ENDCHAR

STARTCHAR M
ENCODING 77
SWIDTH 1136 0
DWIDTH 16 0
BBX 16 15 0 -3
BITMAP
0000
0000
F81F
7C3E
7C3E
7E7E
7FFE
7BDE
799E
799E
799E
FC3F
0000
0000
0000
ENDCHAR

STARTCHAR N
ENCODING 78
SWIDTH 1136 0
DWIDTH 16 0
BBX 16 15 0 -3
BITMAP
0000
0000
7C3E
3C3C
3E3C
3F3C
3FBC
3DFC
3CFC
3C7C
3C3C
7C3E
0000
0000
0000
ENDCHAR

STARTCHAR O
ENCODING 79
SWIDTH 1136 0
DWIDTH 16 0
BBX 16 15 0 -3
BITMAP
0000
0000
07E0
1FF8
3E7C
7C3E
7C3E
7C3E
7C3E
3E7C
1FF8
07E0
0000
0000
0000
ENDCHAR

STARTCHAR P
ENCODING 80
SWIDTH 1136 0
DWIDTH 16 0
BBX 16 15 0 -3
BITMAP
0000
0000
7FF0
1FFC
1E3E
1E1E
1E3E
1FFC
1FF0
1E00
1E00
7F80
0000
0000
0000
ENDCHAR

STARTCHAR Q
ENCODING 81
SWIDTH 1136 0
DWIDTH 16 0
BBX 16 15 0 -3
BITMAP
0000
0000
07E0
1FF8
3E7C
7C3E
7C3E
7C3E
7C3E
3E7C
1FF8
07E0
0070
0038
0000
ENDCHAR

STARTCHAR R
ENCODING 82
SWIDTH 1136 0
DWIDTH 16 0
BBX 16 15 0 -3
BITMAP
0000
0000
7FE0
3FF8
3C7C
3C3C
3C7C
3FF8
3FE0
3CF8
3C7C
7E3E
0000
0000
0000
ENDCHAR

STARTCHAR S
ENCODING 83
SWIDTH 1136 0
DWIDTH 16 0
BBX 16 15 0 -3
BITMAP
0000
0000
07F0
1FFC
3E1E
3F80
1FF0
0FFC
01FE
3C1E
1FFC
0FF0
0000
0000
0000
ENDCHAR

STARTCHAR T
ENCODING 84
SWIDTH 1136 0
DWIDTH 16 0
BBX 16 15 0 -3
BITMAP
0000
0000
3FFC
3FFC
23C4
03C0
03C0
03C0
03C0
03C0
03C0
0FF0
0000
0000
0000
ENDCHAR

STARTCHAR U
ENCODING 85
SWIDTH 1136 0
DWIDTH 16 0
BBX 16 15 0 -3
BITMAP
0000
0000
7E7E
3C3C
3C3C
3C3C
3C3C
3C3C
3C3C
1E78
1FF8
07E0
0000
0000
0000
ENDCHAR

STARTCHAR V
ENCODING 86
SWIDTH 1136 0
DWIDTH 16 0
BBX 16 15 0 -3
BITMAP
0000
0000
7E3F
3C1E
3C1E
1C1C
1E3C
0E38
0F78
07F0
03E0
01C0
0000
0000
0000
ENDCHAR

STARTCHAR W
ENCODING 87
SWIDTH 1136 0
DWIDTH 16 0
BBX 16 15 0 -3
BITMAP
0000
0000
F81F
799E
799E
799E
799E
3BDC
3BDC
1A58
0E70
0C30
0000
0000
0000
ENDCHAR

STARTCHAR X
ENCODING 88
SWIDTH 1136 0
DWIDTH 16 0
BBX 16 15 0 -3
BITMAP
0000
0000
7E1F
1F3C
0FF8
07F0
03E0
03E0
07F0
0F78
1E3C
7C1F
0000
0000
0000
ENDCHAR

STARTCHAR Y
ENCODING 89
SWIDTH 1136 0
DWIDTH 16 0
BBX 16 15 0 -3
BITMAP
0000
0000
F81F
7C3E
3E7C
1E78
0FF0
07E0
03C0
03C0
03C0
0FF0
0000
0000
0000
ENDCHAR

STARTCHAR Z
ENCODING 90
SWIDTH 1136 0
DWIDTH 16 0
BBX 16 15 0 -3
BITMAP
0000
0000
3FFC
3FFC
303C
20F8
01F0
07C0
1F04
3E0C
3FFC
3FFC
0000
0000
0000
ENDCHAR

STARTCHAR bracketleft
ENCODING 91
SWIDTH 1136 0
DWIDTH 16 0
BBX 16 15 0 -3
BITMAP
0000
0000
03FC
03FC
03C0
03C0
03C0
03C0
03C0
03C0
03C0
03FC
03FC
0000
0000
ENDCHAR

STARTCHAR backslash
ENCODING 92
SWIDTH 1136 0
DWIDTH 16 0
BBX 16 15 0 -3
BITMAP
0000
0000
3800
1C00
0E00
0700
0380
01C0
00E0
0070
0038
001C
0000
0000
0000
ENDCHAR

STARTCHAR bracketright
ENCODING 93
SWIDTH 1136 0
DWIDTH 16 0
BBX 16 15 0 -3
BITMAP
0000
0000
3FC0
3FC0
03C0
03C0
03C0
03C0
03C0
03C0
03C0
3FC0
3FC0
0000
0000
ENDCHAR

STARTCHAR asciicircum
ENCODING 94
SWIDTH 1136 0
DWIDTH 16 0
BBX 16 15 0 -3
BITMAP
0000
0000
03E0
07F0
0F78
1E3C
0000
0000
0000
0000
0000
0000
0000
0000
0000
ENDCHAR

STARTCHAR underscore
ENCODING 95
SWIDTH 1136 0
DWIDTH 16 0
BBX 16 15 0 -3
BITMAP
0000
0000
0000
0000
0000
0000
0000
0000
0000
0000
0000
0000
3FFC
3FFC
0000
ENDCHAR

STARTCHAR quoteleft
ENCODING 96
SWIDTH 1136 0
DWIDTH 16 0
BBX 16 15 0 -3
BITMAP
0000
0000
03C0
03C0
01E0
0070
0000
0000
0000
0000
0000
0000
0000
0000
0000
ENDCHAR

STARTCHAR a
ENCODING 97
SWIDTH 1136 0
DWIDTH 16 0
BBX 16 15 0 -3
BITMAP
0000
0000
0000
0000
1FF8
3FFC
387C
003C
3FFC
783C
7FFF
3FBF
0000
0000
0000
ENDCHAR

STARTCHAR b
ENCODING 98
SWIDTH 1136 0
DWIDTH 16 0
BBX 16 15 0 -3
BITMAP
0000
7C00
3C00
3C00
3DF0
3FFC
3E3E
3C1E
3C1E
3C3E
3FFC
7FF0
0000
0000
0000
ENDCHAR

STARTCHAR c
ENCODING 99
SWIDTH 1136 0
DWIDTH 16 0
BBX 16 15 0 -3
BITMAP
0000
0000
0000
0000
0FF8
3FFE
7C0E
7800
7800
7C0E
3FFE
0FFC
0000
0000
0000
ENDCHAR

STARTCHAR d
ENCODING 100
SWIDTH 1136 0
DWIDTH 16 0
BBX 16 15 0 -3
BITMAP
0000
007C
003C
003C
0FFC
3FFC
7C3C
783C
783C
7C7C
3FFC
0FBE
0000
0000
0000
ENDCHAR

STARTCHAR e
ENCODING 101
SWIDTH 1136 0
DWIDTH 16 0
BBX 16 15 0 -3
BITMAP
0000
0000
0000
0000
0FF0
3FFC
781E
7FFE
7FFC
7800
3FFC
0FF8
0000
0000
0000
ENDCHAR

STARTCHAR f
ENCODING 102
SWIDTH 1136 0
DWIDTH 16 0
BBX 16 15 0 -3
BITMAP
0000
03FC
07FE
0786
0780
3FFC
3FFC
0780
0780
0780
1FF8
1FF8
0000
0000
0000
ENDCHAR

STARTCHAR g
ENCODING 103
SWIDTH 1136 0
DWIDTH 16 0
BBX 16 15 0 -3
BITMAP
0000
0000
0000
0000
0FFC
3FFC
7C3C
783C
7C3C
3FFC
0FFC
001C
3FF8
1FF0
0000
ENDCHAR

STARTCHAR h
ENCODING 104
SWIDTH 1136 0
DWIDTH 16 0
BBX 16 15 0 -3
BITMAP
0000
7C00
3C00
3C00
3DF8
3FFC
3E7C
3C3C
3C3C
3C3C
3C3C
7E7E
0000
0000
0000
ENDCHAR

STARTCHAR i
ENCODING 105
SWIDTH 1136 0
DWIDTH 16 0
BBX 16 15 0 -3
BITMAP
0000
03C0
03C0
0000
1FC0
1FC0
03C0
03C0
03C0
03C0
3FFC
3FFC
0000
0000
0000
ENDCHAR

STARTCHAR j
ENCODING 106
SWIDTH 1136 0
DWIDTH 16 0
BBX 16 15 0 -3
BITMAP
0000
0078
0078
0000
0FF8
0FF8
0078
0078
0078
0078
0078
00F8
1FF0
1FE0
0000
ENDCHAR

STARTCHAR k
ENCODING 107
SWIDTH 1136 0
DWIDTH 16 0
BBX 16 15 0 -3
BITMAP
0000
7C00
3C00
3C00
3C3E
3C7C
3CF0
3FC0
3FC0
3DF0
3C7C
7C3E
0000
0000
0000
ENDCHAR

STARTCHAR l
ENCODING 108
SWIDTH 1136 0
DWIDTH 16 0
BBX 16 15 0 -3
BITMAP
0000
1FC0
1FC0
03C0
03C0
03C0
03C0
03C0
03C0
03C0
3FFC
3FFC
0000
0000
0000
ENDCHAR

STARTCHAR m
ENCODING 109
SWIDTH 1136 0
DWIDTH 16 0
BBX 16 15 0 -3
BITMAP
0000
0000
0000
0000
F77C
7FFE
79CE
79CE
79CE
79CE
79CE
F9CF
0000
0000
0000
ENDCHAR

STARTCHAR n
ENCODING 110
SWIDTH 1136 0
DWIDTH 16 0
BBX 16 15 0 -3
BITMAP
0000
0000
0000
0000
7DF8
3FFC
3E3C
3C3C
3C3C
3C3C
3C3C
7C7E
0000
0000
0000
ENDCHAR

STARTCHAR o
ENCODING 111
SWIDTH 1136 0
DWIDTH 16 0
BBX 16 15 0 -3
BITMAP
0000
0000
0000
0000
0FF0
3FFC
7C3E
781E
781E
7C3E
3FFC
0FF0
0000
0000
0000
ENDCHAR

STARTCHAR p
ENCODING 112
SWIDTH 1136 0
DWIDTH 16 0
BBX 16 15 0 -3
BITMAP
0000
0000
0000
0000
7BF0
3FFC
3C3E
3C1E
3C1E
3E3E
3FFC
3DF0
3C00
7E00
0000
ENDCHAR

STARTCHAR q
ENCODING 113
SWIDTH 1136 0
DWIDTH 16 0
BBX 16 15 0 -3
BITMAP
0000
0000
0000
0000
0FFC
3FFC
7C3C
783C
783C
7C7C
3FFC
0FBC
003C
007E
0000
ENDCHAR

STARTCHAR r
ENCODING 114
SWIDTH 1136 0
DWIDTH 16 0
BBX 16 15 0 -3
BITMAP
0000
0000
0000
0000
3F7C
3FFC
0F84
0F00
0F00
0F00
3FE0
3FE0
0000
0000
0000
ENDCHAR

STARTCHAR s
ENCODING 115
SWIDTH 1136 0
DWIDTH 16 0
BBX 16 15 0 -3
BITMAP
0000
0000
0000
0000
1FFC
3FFC
3C00
3FF8
0FFC
003C
3FFC
3FF8
0000
0000
0000
ENDCHAR

STARTCHAR t
ENCODING 116
SWIDTH 1136 0
DWIDTH 16 0
BBX 16 15 0 -3
BITMAP
0000
0F00
0F00
0F00
7FFC
7FFC
0F00
0F00
0F00
0F00
0FFC
07FC
0000
0000
0000
ENDCHAR

STARTCHAR u
ENCODING 117
SWIDTH 1136 0
DWIDTH 16 0
BBX 16 15 0 -3
BITMAP
0000
0000
0000
0000
7C7C
3C3C
3C3C
3C3C
3C3C
3C7C
3FFC
1FBE
0000
0000
0000
ENDCHAR

STARTCHAR v
ENCODING 118
SWIDTH 1136 0
DWIDTH 16 0
BBX 16 15 0 -3
BITMAP
0000
0000
0000
0000
F83E
783C
783C
3C78
3C78
1EF0
1EF0
0FE0
0000
0000
0000
ENDCHAR

STARTCHAR w
ENCODING 119
SWIDTH 1136 0
DWIDTH 16 0
BBX 16 15 0 -3
BITMAP
0000
0000
0000
0000
F81F
799E
799E
799E
799E
7BDE
3FFC
1C38
0000
0000
0000
ENDCHAR

STARTCHAR x
ENCODING 120
SWIDTH 1136 0
DWIDTH 16 0
BBX 16 15 0 -3
BITMAP
0000
0000
0000
0000
7C3C
3E70
1FE0
0FC0
07E0
0FF0
1CF8
787C
0000
0000
0000
ENDCHAR

STARTCHAR y
ENCODING 121
SWIDTH 1136 0
DWIDTH 16 0
BBX 16 15 0 -3
BITMAP
0000
0000
0000
0000
FC1F
3E3C
1F78
0FF0
07E0
03C0
0380
0700
3E00
3800
0000
ENDCHAR

STARTCHAR z
ENCODING 122
SWIDTH 1136 0
DWIDTH 16 0
BBX 16 15 0 -3
BITMAP
0000
0000
0000
0000
1FFC
1FFC
10F0
01E0
03C0
0F84
1FFC
1FFC
0000
0000
0000
ENDCHAR

STARTCHAR braceleft
ENCODING 123
SWIDTH 1136 0
DWIDTH 16 0
BBX 16 15 0 -3
BITMAP
0000
007C
00F0
01E0
01E0
00F0
07C0
00F0
01E0
01E0
01F0
00F0
003C
0000
0000
ENDCHAR

STARTCHAR bar
ENCODING 124
SWIDTH 1136 0
DWIDTH 16 0
BBX 16 15 0 -3
BITMAP
0000
03C0
03C0
03C0
03C0
03C0
03C0
03C0
03C0
03C0
03C0
03C0
03C0
0000
0000
ENDCHAR

STARTCHAR braceright
ENCODING 125
SWIDTH 1136 0
DWIDTH 16 0
BBX 16 15 0 -3
BITMAP
0000
3E00
0F00
0780
0780
0F00
03E0
0F00
0780
0780
0780
0F00
3E00
0000
0000
ENDCHAR

STARTCHAR asciitilde
ENCODING 126
SWIDTH 1136 0
DWIDTH 16 0
BBX 16 15 0 -3
BITMAP
0000
0000
0F0C
1FFC
3FF8
30F0
0000
0000
0000
0000
0000
0000
0000
0000
0000
ENDCHAR

STARTCHAR space
ENCODING 160
SWIDTH 1136 0
DWIDTH 16 0
BBX 16 15 0 -3
BITMAP
0000
0000
0000
0000
0000
0000
0000
0000
0000
0000
0000
0000
0000
0000
0000
ENDCHAR

STARTCHAR afii10023
ENCODING 161
SWIDTH 1136 0
DWIDTH 16 0
BBX 16 15 0 -3
BITMAP
0E70
0E70
0000
7FFC
1FFC
1E04
1FE0
1FE0
1E04
1E0C
1FFC
7FFC
0000
0000
0000
ENDCHAR

STARTCHAR afii10051
ENCODING 162
SWIDTH 1136 0
DWIDTH 16 0
BBX 16 15 0 -3
BITMAP
0000
0000
7FF8
7FF8
0F00
0F7C
0F9E
0F1E
0F1E
0F1E
0F3C
0F78
0000
0000
0000
ENDCHAR

STARTCHAR afii10052
ENCODING 163
SWIDTH 1136 0
DWIDTH 16 0
BBX 16 15 0 -3
BITMAP
0070
00E0
0000
3FFC
0FFC
0F0C
0F04
0F00
0F00
0F00
0F00
3FC0
0000
0000
0000
ENDCHAR

STARTCHAR afii10053
ENCODING 164
SWIDTH 1136 0
DWIDTH 16 0
BBX 16 15 0 -3
BITMAP
0000
0000
07F0
1FFC
3E1E
7C00
7FC0
7FC0
7C0E
3E1E
1FFC
07F0
0000
0000
0000
ENDCHAR

STARTCHAR afii10054
ENCODING 165
SWIDTH 1136 0
DWIDTH 16 0
BBX 16 15 0 -3
BITMAP
0000
0000
07F0
1FFC
3E1E
3F80
1FF0
0FFC
01FE
3C1E
1FFC
0FF0
0000
0000
0000
ENDCHAR

STARTCHAR afii10055
ENCODING 166
SWIDTH 1136 0
DWIDTH 16 0
BBX 16 15 0 -3
BITMAP
0000
0000
1FF8
1FF8
03C0
03C0
03C0
03C0
03C0
03C0
1FF8
1FF8
0000
0000
0000
ENDCHAR

STARTCHAR afii10056
ENCODING 167
SWIDTH 1136 0
DWIDTH 16 0
BBX 16 15 0 -3
BITMAP
0E70
0E70
0000
1FF8
1FF8
03C0
03C0
03C0
03C0
03C0
1FF8
1FF8
0000
0000
0000
ENDCHAR

STARTCHAR afii10057
ENCODING 168
SWIDTH 1136 0
DWIDTH 16 0
BBX 16 15 0 -3
BITMAP
0000
0000
07F8
07F8
0078
0078
0078
0078
0078
3C78
3FF0
1FE0
0000
0000
0000
ENDCHAR

STARTCHAR afii10058
ENCODING 169
SWIDTH 1136 0
DWIDTH 16 0
BBX 16 15 0 -3
BITMAP
0000
0000
3FF0
1FE0
1CE0
1CE0
1CFE
1CFF
1CE7
1CE7
78FF
70FE
0000
0000
0000
ENDCHAR

STARTCHAR afii10059
ENCODING 170
SWIDTH 1136 0
DWIDTH 16 0
BBX 16 15 0 -3
BITMAP
0000
0000
7DC0
39C0
39C0
39C0
3FFC
3FFE
39CE
39CE
39FE
7DFC
0000
0000
0000
ENDCHAR

STARTCHAR afii10060
ENCODING 171
SWIDTH 1136 0
DWIDTH 16 0
BBX 16 15 0 -3
BITMAP
0000
0000
7FF0
7FF0
0F00
0F00
0F78
0FFC
0F9E
0F1E
0F1E
1FBF
0000
0000
0000
ENDCHAR

STARTCHAR afii10061
ENCODING 172
SWIDTH 1136 0
DWIDTH 16 0
BBX 16 15 0 -3
BITMAP
00E0
01C0
0000
7E3C
3C7C
3CF0
3FE0
3FC0
3FF0
3CF8
3C7C
7E3C
0000
0000
0000
ENDCHAR

STARTCHAR hyphen
ENCODING 173
SWIDTH 1136 0
DWIDTH 16 0
BBX 16 15 0 -3
BITMAP
0000
0000
0000
0000
0000
0000
07E0
07E0
0000
0000
0000
0000
0000
0000
0000
ENDCHAR

STARTCHAR afii10062
ENCODING 174
SWIDTH 1136 0
DWIDTH 16 0
BBX 16 15 0 -3
BITMAP
0630
03E0
0000
7C3E
3E7C
1E78
0FF0
07E0
03C0
03C0
0780
1F00
0000
0000
0000
ENDCHAR

STARTCHAR afii10145
ENCODING 175
SWIDTH 1136 0
DWIDTH 16 0
BBX 16 15 0 -3
BITMAP
0000
0000
7C3E
3C3C
3C3C
3C3C
3C3C
3C3C
3C3C
3C3C
3C3C
7FFE
03C0
03C0
03C0
ENDCHAR

STARTCHAR afii10017
ENCODING 176
SWIDTH 1136 0
DWIDTH 16 0
BBX 16 15 0 -3
BITMAP
0000
0000
0180
03C0
07E0
0FF0
1E78
3C3C
3FFC
7FFE
F81F
F81F
0000
0000
0000
ENDCHAR

STARTCHAR afii10018
ENCODING 177
SWIDTH 1136 0
DWIDTH 16 0
BBX 16 15 0 -3
BITMAP
0000
0000
7FFC
3FFC
3C00
3C00
3FF8
3FFC
3C1E
3C1E
3FFC
7FF8
0000
0000
0000
ENDCHAR

STARTCHAR afii10019
ENCODING 178
SWIDTH 1136 0
DWIDTH 16 0
BBX 16 15 0 -3
BITMAP
0000
0000
7FFC
3FFE
3C3E
3C1C
3FF8
3FFE
3C1F
3C3F
3FFE
7FFC
0000
0000
0000
ENDCHAR

STARTCHAR afii10020
ENCODING 179
SWIDTH 1136 0
DWIDTH 16 0
BBX 16 15 0 -3
BITMAP
0000
0000
3FFC
0FFC
0F0C
0F04
0F00
0F00
0F00
0F00
0F00
3FC0
0000
0000
0000
ENDCHAR

STARTCHAR afii10021
ENCODING 180
SWIDTH 1136 0
DWIDTH 16 0
BBX 16 15 0 -3
BITMAP
0000
0000
3FFE
1FFC
1E3C
1E3C
1E3C
1E3C
1E3C
3C3C
3FFE
3FFE
3C1E
3C1E
0000
ENDCHAR

STARTCHAR afii10022
ENCODING 181
SWIDTH 1136 0
DWIDTH 16 0
BBX 16 15 0 -3
BITMAP
0000
0000
7FFC
1FFC
1E0C
1E04
1FE0
1FE0
1E04
1E0C
1FFC
7FFC
0000
0000
0000
ENDCHAR

STARTCHAR afii10024
ENCODING 182
SWIDTH 1136 0
DWIDTH 16 0
BBX 16 15 0 -3
BITMAP
0000
0000
F7EF
7BDE
3BDC
3FF8
0FE0
1FF0
3FF8
3BDC
7BDE
F7EF
0000
0000
0000
ENDCHAR

STARTCHAR afii10025
ENCODING 183
SWIDTH 1136 0
DWIDTH 16 0
BBX 16 15 0 -3
BITMAP
0000
0000
0FF0
3FFC
781E
001E
01FC
01F8
701E
781E
3FFE
0FF8
0000
0000
0000
ENDCHAR

STARTCHAR afii10026
ENCODING 184
SWIDTH 1136 0
DWIDTH 16 0
BBX 16 15 0 -3
BITMAP
0000
0000
7C3E
3C3C
3C7C
3CFC
3DFC
3FBC
3F3C
3E3C
3C3C
7C3E
0000
0000
0000
ENDCHAR

STARTCHAR afii10027
ENCODING 185
SWIDTH 1136 0
DWIDTH 16 0
BBX 16 15 0 -3
BITMAP
0C60
07C0
0000
7C3E
3C7C
3CFC
3DFC
3FBC
3F3C
3E3C
3C3C
7C3E
0000
0000
0000
ENDCHAR

STARTCHAR afii10028
ENCODING 186
SWIDTH 1136 0
DWIDTH 16 0
BBX 16 15 0 -3
BITMAP
0000
0000
7E1E
3C3E
3C78
3CF0
3FE0
3FC0
3FF0
3CF8
3C7C
7E3E
0000
0000
0000
ENDCHAR

STARTCHAR afii10029
ENCODING 187
SWIDTH 1136 0
DWIDTH 16 0
BBX 16 15 0 -3
BITMAP
0000
0000
3FFE
1FFC
1E3C
1E3C
1E3C
1E3C
1E3C
1E3C
7E3C
7C3E
0000
0000
0000
ENDCHAR

STARTCHAR afii10030
ENCODING 188
SWIDTH 1136 0
DWIDTH 16 0
BBX 16 15 0 -3
BITMAP
0000
0000
F81F
7C3E
7C3E
7E7E
7FFE
7BDE
799E
799E
799E
FC3F
0000
0000
0000
ENDCHAR

STARTCHAR afii10031
ENCODING 189
SWIDTH 1136 0
DWIDTH 16 0
BBX 16 15 0 -3
BITMAP
0000
0000
7E7E
3C3C
3C3C
3C3C
3FFC
3FFC
3C3C
3C3C
3C3C
7E7E
0000
0000
0000
ENDCHAR

STARTCHAR afii10032
ENCODING 190
SWIDTH 1136 0
DWIDTH 16 0
BBX 16 15 0 -3
BITMAP
0000
0000
07E0
1FF8
3E7C
7C3E
7C3E
7C3E
7C3E
3E7C
1FF8
07E0
0000
0000
0000
ENDCHAR

STARTCHAR afii10033
ENCODING 191
SWIDTH 1136 0
DWIDTH 16 0
BBX 16 15 0 -3
BITMAP
0000
0000
7FFE
3FFC
3C3C
3C3C
3C3C
3C3C
3C3C
3C3C
3C3C
7E7E
0000
0000
0000
ENDCHAR

STARTCHAR afii10034
ENCODING 192
SWIDTH 1136 0
DWIDTH 16 0
BBX 16 15 0 -3
BITMAP
0000
0000
7FF0
1FFC
1E3E
1E1E
1E3E
1FFC
1FF0
1E00
1E00
7F80
0000
0000
0000
ENDCHAR

STARTCHAR afii10035
ENCODING 193
SWIDTH 1136 0
DWIDTH 16 0
BBX 16 15 0 -3
BITMAP
0000
0000
07F0
1FFC
3E1E
7C00
7C00
7C00
7C0E
3E1E
1FFC
07F0
0000
0000
0000
ENDCHAR

STARTCHAR afii10036
ENCODING 194
SWIDTH 1136 0
DWIDTH 16 0
BBX 16 15 0 -3
BITMAP
0000
0000
3FFC
3FFC
23C4
03C0
03C0
03C0
03C0
03C0
03C0
0FF0
0000
0000
0000
ENDCHAR

STARTCHAR afii10037
ENCODING 195
SWIDTH 1136 0
DWIDTH 16 0
BBX 16 15 0 -3
BITMAP
0000
0000
781E
3C3C
1E38
0F78
07F0
03F0
01E0
01E0
03C0
0F80
0000
0000
0000
ENDCHAR

STARTCHAR afii10038
ENCODING 196
SWIDTH 1136 0
DWIDTH 16 0
BBX 16 15 0 -3
BITMAP
0000
0000
03E0
01C0
0FF8
3FFE
79CF
79CF
3FFE
0FF8
01C0
03E0
0000
0000
0000
ENDCHAR

STARTCHAR afii10039
ENCODING 197
SWIDTH 1136 0
DWIDTH 16 0
BBX 16 15 0 -3
BITMAP
0000
0000
7E1F
1F3C
0FF8
07F0
03E0
03E0
07F0
0F78
1E3C
7C1F
0000
0000
0000
ENDCHAR

STARTCHAR afii10040
ENCODING 198
SWIDTH 1136 0
DWIDTH 16 0
BBX 16 15 0 -3
BITMAP
0000
0000
7E7E
3C3C
3C3C
3C3C
3C3C
3C3C
3C3C
3C3C
3FFE
7FFE
000E
000E
000E
ENDCHAR

STARTCHAR afii10041
ENCODING 199
SWIDTH 1136 0
DWIDTH 16 0
BBX 16 15 0 -3
BITMAP
0000
0000
7C7E
3C3C
3C3C
3C3C
3C7C
1FFC
0FBC
003C
003C
007E
0000
0000
0000
ENDCHAR

STARTCHAR afii10042
ENCODING 200
SWIDTH 1136 0
DWIDTH 16 0
BBX 16 15 0 -3
BITMAP
0000
0000
79CF
39CE
39CE
39CE
39CE
39CE
39CE
39CE
3FFE
7FFF
0000
0000
0000
ENDCHAR

STARTCHAR afii10043
ENCODING 201
SWIDTH 1136 0
DWIDTH 16 0
BBX 16 15 0 -3
BITMAP
0000
0000
79CF
39CE
39CE
39CE
39CE
39CE
39CE
39CE
3FFE
7FFF
0007
0007
0007
ENDCHAR

STARTCHAR afii10044
ENCODING 202
SWIDTH 1136 0
DWIDTH 16 0
BBX 16 15 0 -3
BITMAP
0000
0000
7F80
7F80
4780
07F0
07FC
079E
079E
079E
07FC
0FF0
0000
0000
0000
ENDCHAR

STARTCHAR afii10045
ENCODING 203
SWIDTH 1136 0
DWIDTH 16 0
BBX 16 15 0 -3
BITMAP
0000
0000
780F
780F
780F
7F0F
7FCF
79EF
79EF
79EF
7FCF
7F8F
0000
0000
0000
ENDCHAR

STARTCHAR afii10046
ENCODING 204
SWIDTH 1136 0
DWIDTH 16 0
BBX 16 15 0 -3
BITMAP
0000
0000
7F00
3E00
3E00
3E00
3FFC
3FFE
3E1F
3E1F
3FFE
7FFC
0000
0000
0000
ENDCHAR

STARTCHAR afii10047
ENCODING 205
SWIDTH 1136 0
DWIDTH 16 0
BBX 16 15 0 -3
BITMAP
0000
0000
0FE0
3FF8
787C
003E
07FE
07FE
703E
787C
3FF8
0FE0
0000
0000
0000
ENDCHAR

STARTCHAR afii10048
ENCODING 206
SWIDTH 1136 0
DWIDTH 16 0
BBX 16 15 0 -3
BITMAP
0000
0000
FC78
78FC
79CE
7BCF
7FCF
7FCF
7BCF
79CE
78FC
FC78
0000
0000
0000
ENDCHAR

STARTCHAR afii10049
ENCODING 207
SWIDTH 1136 0
DWIDTH 16 0
BBX 16 15 0 -3
BITMAP
0000
0000
07FE
1FFC
3E3C
3C3C
3E3C
1FFC
07FC
1F3C
3E3C
7C7E
0000
0000
0000
ENDCHAR

STARTCHAR afii10065
ENCODING 208
SWIDTH 1136 0
DWIDTH 16 0
BBX 16 15 0 -3
BITMAP
0000
0000
0000
0000
1FF8
3FFC
387C
003C
3FFC
783C
7FFF
3FBF
0000
0000
0000
ENDCHAR

STARTCHAR afii10066
ENCODING 209
SWIDTH 1136 0
DWIDTH 16 0
BBX 16 15 0 -3
BITMAP
0000
0006
3FFC
7000
7FF8
7FFC
7C3E
781E
781E
7C3E
3FFC
0FF8
0000
0000
0000
ENDCHAR

STARTCHAR afii10067
ENCODING 210
SWIDTH 1136 0
DWIDTH 16 0
BBX 16 15 0 -3
BITMAP
0000
0000
0000
0000
7FF0
1FFC
1E1E
1FFC
1FF8
1E1E
1FFE
7FFC
0000
0000
0000
ENDCHAR

STARTCHAR afii10068
ENCODING 211
SWIDTH 1136 0
DWIDTH 16 0
BBX 16 15 0 -3
BITMAP
0000
0000
0000
0000
1FF8
0FF8
0F18
0F08
0F00
0F00
0F00
1F80
0000
0000
0000
ENDCHAR

STARTCHAR afii10069
ENCODING 212
SWIDTH 1136 0
DWIDTH 16 0
BBX 16 15 0 -3
BITMAP
0000
0000
0000
0000
7FFE
3FFC
3C3C
3C3C
3C3C
783C
7FFE
7FFE
700E
700E
700E
ENDCHAR

STARTCHAR afii10070
ENCODING 213
SWIDTH 1136 0
DWIDTH 16 0
BBX 16 15 0 -3
BITMAP
0000
0000
0000
0000
0FF0
3FFC
781E
7FFE
7FFC
7800
3FFC
0FF8
0000
0000
0000
ENDCHAR

STARTCHAR afii10072
ENCODING 214
SWIDTH 1136 0
DWIDTH 16 0
BBX 16 15 0 -3
BITMAP
0000
0000
0000
0000
7BDE
7BDE
3FFC
1FF8
0FF0
3FFC
7BDE
7BDE
0000
0000
0000
ENDCHAR

STARTCHAR afii10073
ENCODING 215
SWIDTH 1136 0
DWIDTH 16 0
BBX 16 15 0 -3
BITMAP
0000
0000
0000
0000
1FFC
7FFE
701E
01FC
01FE
701E
7FFE
3FFC
0000
0000
0000
ENDCHAR

STARTCHAR afii10074
ENCODING 216
SWIDTH 1136 0
DWIDTH 16 0
BBX 16 15 0 -3
BITMAP
0000
0000
0000
0000
7C3E
3C7C
3CFC
3DFC
3FBC
3F3C
3E3C
3C3E
0000
0000
0000
ENDCHAR

STARTCHAR afii10075
ENCODING 217
SWIDTH 1136 0
DWIDTH 16 0
BBX 16 15 0 -3
BITMAP
0000
0630
03E0
0000
7C3E
3C7C
3CFC
3DFC
3FBC
3F3C
3E3C
3C3E
0000
0000
0000
ENDCHAR

STARTCHAR afii10076
ENCODING 218
SWIDTH 1136 0
DWIDTH 16 0
BBX 16 15 0 -3
BITMAP
0000
0000
0000
0000
7E1E
3C7E
3CF0
3FE0
3FF0
3C78
3C3C
7E1E
0000
0000
0000
ENDCHAR

STARTCHAR afii10077
ENCODING 219
SWIDTH 1136 0
DWIDTH 16 0
BBX 16 15 0 -3
BITMAP
0000
0000
0000
0000
3FFE
1FFC
1E3C
1E3C
1E3C
1E3C
7C3C
787E
0000
0000
0000
ENDCHAR

STARTCHAR afii10078
ENCODING 220
SWIDTH 1136 0
DWIDTH 16 0
BBX 16 15 0 -3
BITMAP
0000
0000
0000
0000
7C1F
3E3E
3E3E
3F7E
3FFE
3DDE
3DDE
7C9F
0000
0000
0000
ENDCHAR

STARTCHAR afii10079
ENCODING 221
SWIDTH 1136 0
DWIDTH 16 0
BBX 16 15 0 -3
BITMAP
0000
0000
0000
0000
7E7E
3C3C
3C3C
3FFC
3FFC
3C3C
3C3C
7E7E
0000
0000
0000
ENDCHAR

STARTCHAR afii10080
ENCODING 222
SWIDTH 1136 0
DWIDTH 16 0
BBX 16 15 0 -3
BITMAP
0000
0000
0000
0000
0FF0
3FFC
7C3E
781E
781E
7C3E
3FFC
0FF0
0000
0000
0000
ENDCHAR

STARTCHAR afii10081
ENCODING 223
SWIDTH 1136 0
DWIDTH 16 0
BBX 16 15 0 -3
BITMAP
0000
0000
0000
0000
7FFE
3FFC
3C3C
3C3C
3C3C
3C3C
3C3C
7E7E
0000
0000
0000
ENDCHAR

STARTCHAR afii10082
ENCODING 224
SWIDTH 1136 0
DWIDTH 16 0
BBX 16 15 0 -3
BITMAP
0000
0000
0000
0000
7BF0
3FFC
3C3E
3C1E
3C1E
3E3E
3FFC
3DF0
3C00
7E00
0000
ENDCHAR

STARTCHAR afii10083
ENCODING 225
SWIDTH 1136 0
DWIDTH 16 0
BBX 16 15 0 -3
BITMAP
0000
0000
0000
0000
0FF8
3FFE
7C0E
7800
7800
7C0E
3FFE
0FFC
0000
0000
0000
ENDCHAR

STARTCHAR afii10084
ENCODING 226
SWIDTH 1136 0
DWIDTH 16 0
BBX 16 15 0 -3
BITMAP
0000
0000
0000
0000
3FFC
3FFC
33CC
23C4
03C0
03C0
03C0
07E0
0000
0000
0000
ENDCHAR

STARTCHAR afii10085
ENCODING 227
SWIDTH 1136 0
DWIDTH 16 0
BBX 16 15 0 -3
BITMAP
0000
0000
0000
0000
FC1F
3E3C
1F78
0FF0
07E0
03C0
0380
0700
3E00
3800
0000
ENDCHAR

STARTCHAR afii10086
ENCODING 228
SWIDTH 1136 0
DWIDTH 16 0
BBX 16 15 0 -3
BITMAP
0000
0000
03C0
01C0
0FF8
1FFC
39CE
39CE
39CE
39CE
1FFC
0FF8
01C0
03E0
0000
ENDCHAR

STARTCHAR afii10087
ENCODING 229
SWIDTH 1136 0
DWIDTH 16 0
BBX 16 15 0 -3
BITMAP
0000
0000
0000
0000
7C3C
3E70
1FE0
0FC0
07E0
0FF0
1CF8
787C
0000
0000
0000
ENDCHAR

STARTCHAR afii10088
ENCODING 230
SWIDTH 1136 0
DWIDTH 16 0
BBX 16 15 0 -3
BITMAP
0000
0000
0000
0000
7E7E
3C3C
3C3C
3C3C
3C3C
3C3C
3FFE
7FFE
000E
000E
000E
ENDCHAR

STARTCHAR afii10089
ENCODING 231
SWIDTH 1136 0
DWIDTH 16 0
BBX 16 15 0 -3
BITMAP
0000
0000
0000
0000
7C7E
3C3C
3C3C
3C7C
3FFC
1FBC
003C
007C
0000
0000
0000
ENDCHAR

STARTCHAR afii10090
ENCODING 232
SWIDTH 1136 0
DWIDTH 16 0
BBX 16 15 0 -3
BITMAP
0000
0000
0000
0000
39CE
39CE
39CE
39CE
39CE
39CE
3FFE
7FFF
0000
0000
0000
ENDCHAR

STARTCHAR afii10091
ENCODING 233
SWIDTH 1136 0
DWIDTH 16 0
BBX 16 15 0 -3
BITMAP
0000
0000
0000
0000
39CE
39CE
39CE
39CE
39CE
39CE
3FFE
7FFF
0007
0007
0007
ENDCHAR

STARTCHAR afii10092
ENCODING 234
SWIDTH 1136 0
DWIDTH 16 0
BBX 16 15 0 -3
BITMAP
0000
0000
0000
0000
3F80
3F80
2380
03F8
03FC
039E
03FC
07F8
0000
0000
0000
ENDCHAR

STARTCHAR afii10093
ENCODING 235
SWIDTH 1136 0
DWIDTH 16 0
BBX 16 15 0 -3
BITMAP
0000
0000
0000
0000
781F
381E
381E
3FDE
3FFE
3CFE
3FFE
3FFF
0000
0000
0000
ENDCHAR

STARTCHAR afii10094
ENCODING 236
SWIDTH 1136 0
DWIDTH 16 0
BBX 16 15 0 -3
BITMAP
0000
0000
0000
0000
1F00
1E00
1E00
1FF0
1FFC
1E1E
1FFC
3FF0
0000
0000
0000
ENDCHAR

STARTCHAR afii10095
ENCODING 237
SWIDTH 1136 0
DWIDTH 16 0
BBX 16 15 0 -3
BITMAP
0000
0000
0000
0000
1FF0
7FFC
703E
03FE
03FE
703E
7FFC
3FF0
0000
0000
0000
ENDCHAR

STARTCHAR afii10096
ENCODING 238
SWIDTH 1136 0
DWIDTH 16 0
BBX 16 15 0 -3
BITMAP
0000
0000
0000
0000
7E3C
3C7E
3CE7
3FE7
3FE7
3CE7
3C7E
7E3C
0000
0000
0000
ENDCHAR

STARTCHAR afii10097
ENCODING 239
SWIDTH 1136 0
DWIDTH 16 0
BBX 16 15 0 -3
BITMAP
0000
0000
0000
0000
1FFE
3FFC
3C3C
1FFC
07FC
0F3C
1E3C
3C7E
0000
0000
0000
ENDCHAR

STARTCHAR afii61352
ENCODING 240
SWIDTH 1136 0
DWIDTH 16 0
BBX 16 15 0 -3
BITMAP
0000
0000
60C0
60C6
70C9
78C9
7CC6
6EC0
67CF
63C0
61C0
60C0
0000
0000
0000
ENDCHAR

STARTCHAR afii10071
ENCODING 241
SWIDTH 1136 0
DWIDTH 16 0
BBX 16 15 0 -3
BITMAP
0000
0E70
0E70
0000
0FF0
3FFC
781E
7FFE
7FFC
7800
3FFC
0FF8
0000
0000
0000
ENDCHAR

STARTCHAR afii10099
ENCODING 242
SWIDTH 1136 0
DWIDTH 16 0
BBX 16 15 0 -3
BITMAP
0000
0000
0000
3C00
7FF8
3C00
3DF8
3FFC
3E3C
3C3C
3C3C
7E3C
003C
03FC
03F8
ENDCHAR

STARTCHAR afii10100
ENCODING 243
SWIDTH 1136 0
DWIDTH 16 0
BBX 16 15 0 -3
BITMAP
0030
0060
00C0
0000
1FF8
0FF8
0F18
0F08
0F00
0F00
0F00
1F80
0000
0000
0000
ENDCHAR

STARTCHAR afii10101
ENCODING 244
SWIDTH 1136 0
DWIDTH 16 0
BBX 16 15 0 -3
BITMAP
0000
0000
0000
0000
0FF8
3FFE
7C0E
7FC0
7FC0
7C0E
3FFE
0FFC
0000
0000
0000
ENDCHAR

STARTCHAR afii10102
ENCODING 245
SWIDTH 1136 0
DWIDTH 16 0
BBX 16 15 0 -3
BITMAP
0000
0000
0000
0000
1FFC
3FFC
3C00
3FF8
0FFC
003C
3FFC
3FF8
0000
0000
0000
ENDCHAR

STARTCHAR afii10103
ENCODING 246
SWIDTH 1136 0
DWIDTH 16 0
BBX 16 15 0 -3
BITMAP
0000
03C0
03C0
0000
1FC0
1FC0
03C0
03C0
03C0
03C0
3FFC
3FFC
0000
0000
0000
ENDCHAR

STARTCHAR afii10104
ENCODING 247
SWIDTH 1136 0
DWIDTH 16 0
BBX 16 15 0 -3
BITMAP
0000
0E70
0E70
0000
1FC0
1FC0
03C0
03C0
03C0
03C0
3FFC
3FFC
0000
0000
0000
ENDCHAR

STARTCHAR afii10105
ENCODING 248
SWIDTH 1136 0
DWIDTH 16 0
BBX 16 15 0 -3
BITMAP
0000
0078
0078
0000
0FF8
0FF8
0078
0078
0078
0078
0078
00F8
1FF0
1FE0
0000
ENDCHAR

STARTCHAR afii10106
ENCODING 249
SWIDTH 1136 0
DWIDTH 16 0
BBX 16 15 0 -3
BITMAP
0000
0000
0000
0000
3FF0
1FE0
1CFC
1CFE
1CE7
1CE7
7CFE
78FC
0000
0000
0000
ENDCHAR

STARTCHAR afii10107
ENCODING 250
SWIDTH 1136 0
DWIDTH 16 0
BBX 16 15 0 -3
BITMAP
0000
0000
0000
0000
7DC0
39C0
39F8
3FFC
3FCE
39CE
39FE
7DFC
0000
0000
0000
ENDCHAR

STARTCHAR afii10108
ENCODING 251
SWIDTH 1136 0
DWIDTH 16 0
BBX 16 15 0 -3
BITMAP
0000
0000
3C00
7FF8
3C00
3DF8
3FFC
3E3C
3C3C
3C3C
3C3C
7E3E
0000
0000
0000
ENDCHAR

STARTCHAR afii10109
ENCODING 252
SWIDTH 1136 0
DWIDTH 16 0
BBX 16 15 0 -3
BITMAP
0060
00C0
0180
0000
7E1E
3C7E
3CF0
3FE0
3FF0
3C78
3C3C
7E1E
0000
0000
0000
ENDCHAR

STARTCHAR section
ENCODING 253
SWIDTH 1136 0
DWIDTH 16 0
BBX 16 15 0 -3
BITMAP
0000
0FF8
1FFC
1E1C
0FE0
1FF8
3C3C
3C3C
1FF8
07FC
383C
3FF8
1FF0
0000
0000
ENDCHAR

STARTCHAR afii10110
ENCODING 254
SWIDTH 1136 0
DWIDTH 16 0
BBX 16 15 0 -3
BITMAP
0000
0630
03E0
0000
7C1E
3E3C
1F78
0FF0
07E0
03C0
0380
0700
3E00
3800
0000
ENDCHAR

STARTCHAR afii10193
ENCODING 255
SWIDTH 1136 0
DWIDTH 16 0
BBX 16 15 0 -3
BITMAP
0000
0000
0000
0000
7E7E
3C3C
3C3C
3C3C
3C3C
3C3C
3C3C
7FFE
03C0
03C0
03C0
ENDCHAR
ENDFONT
